# xmcd CD database file
#
# Track frame offsets:
#	150
#	20220
#	38652
#	51565
#	70877
#	92095
#	111257
#	134310
#	156330
#	175820
#	201845
#
# Disc length: 2854 seconds
#
# Revision: 0
# Processed by: cddbd v1.5.1PL0 Copyright (c) Steve Scherf et al.
# Submitted via: CDex 1.51
#
DISCID=9f0b240b
DTITLE=UNDER THE COUNTER - "WORLD AND MARBLES"
DYEAR=2005
DGENRE=ロック (一般)
TTITLE0=sohappy,unhappy
TTITLE1=モダンライフ
TTITLE2=rat
TTITLE3=E
TTITLE4=スプリンクラー
TTITLE5=stereo homesick
TTITLE6=賛美歌
TTITLE7=toricolor
TTITLE8=ナイト・オン・ザ・プラネット
TTITLE9=gone
TTITLE10=サニー　サニー
EXTD=YEAR: 2005
EXTT0=
EXTT1=
EXTT2=
EXTT3=
EXTT4=
EXTT5=
EXTT6=
EXTT7=
EXTT8=
EXTT9=
EXTT10=
PLAYORDER=
